# xmcd
#
# Track frame offsets:
#	150
#	12367
#	22860
#	32787
#	46470
#	61317
#	73552
#	84954
#	95645
#	108195
#	122535
#	132785
#	146320
#	157370
#	170387
#	182250
#	192607
#	202695
#	216660
#	231170
#
# Disc length: 3212 seconds
#
# Revision: 1
# Processed by: cddbd v1.5PL3 Copyright (c) Steve Scherf et al.
# Submitted via: audiograbber 1.83.01
#
DISCID=0f0c8a14
DTITLE=José Ribeiro - 20 Sucessos - 20 sucessos
DYEAR=1900
DGENRE=
TTITLE0=Meu coração que não te esquece
TTITLE1=Na porta da cozinha
TTITLE2=Canção dos namorados
TTITLE3=Pensando em Mariza
TTITLE4=Um amor vai outro vem
TTITLE5=Suely
TTITLE6=Nem um minuto a mais
TTITLE7=Aqui estou eu
TTITLE8=Um coração não é brinquedo
TTITLE9=Sandra
TTITLE10=Pensando em você
TTITLE11=A belesa da rosa
TTITLE12=Oração de amor
TTITLE13=Erro de matrimônio
TTITLE14=O beijo
TTITLE15=Perdoa amor
TTITLE16=Olhos negros
TTITLE17=O amor existe
TTITLE18=Tive tanta confiança
TTITLE19=Por isso eu canto
EXTD=
EXTT0=
EXTT1=
EXTT2=
EXTT3=
EXTT4=
EXTT5=
EXTT6=
EXTT7=
EXTT8=
EXTT9=
EXTT10=
EXTT11=
EXTT12=
EXTT13=
EXTT14=
EXTT15=
EXTT16=
EXTT17=
EXTT18=
EXTT19=
PLAYORDER=
